HIERARCHY
ROOT Hips
{
	OFFSET -3.958830 18.904000 13.208200
	CHANNELS 6 Xposition Yposition Zposition Zrotation Yrotation Xrotation 
	JOINT LHipJoint
	{
		OFFSET 0.000000 0.000000 0.000000
		CHANNELS 3 Zrotation Yrotation Xrotation
		JOINT LeftUpLeg
		{
			OFFSET 1.800000 -1.400000 0.085000
			CHANNELS 3 Zrotation Yrotation Xrotation
			JOINT LeftLeg
			{
				OFFSET 2.215000 -6.000000 0.000000
				CHANNELS 3 Zrotation Yrotation Xrotation
				JOINT LeftFoot
				{
					OFFSET 2.500000 -6.900000 0.000000
					CHANNELS 3 Zrotation Yrotation Xrotation
					JOINT LeftToeBase
					{
						OFFSET 0.200000 -0.500000 1.950000
						CHANNELS 3 Zrotation Yrotation Xrotation
						End Site
						{
							OFFSET 0.000000 0.000000 0.000000
						}
					}
				}
			}
		}
	}
	JOINT RHipJoint
	{
		OFFSET 0.000000 0.000000 0.000000
		CHANNELS 3 Zrotation Yrotation Xrotation
		JOINT RightUpLeg
		{
			OFFSET -1.800000 -1.400000 0.085000
			CHANNELS 3 Zrotation Yrotation Xrotation
			JOINT RightLeg
			{
				OFFSET -2.215000 -6.000000 0.000000
				CHANNELS 3 Zrotation Yrotation Xrotation
				JOINT RightFoot
				{
					OFFSET -2.500000 -6.900000 0.000000
					CHANNELS 3 Zrotation Yrotation Xrotation
					JOINT RightToeBase
					{
						OFFSET -0.200000 -0.500000 1.950000
						CHANNELS 3 Zrotation Yrotation Xrotation
						End Site
						{
							OFFSET 0.000000 0.000000 0.000000
						}
					}
				}
			}
		}
	}
	JOINT LowerBack
	{
		OFFSET 0.000000 0.000000 0.000000
		CHANNELS 3 Zrotation Yrotation Xrotation
		JOINT Spine
		{
			OFFSET -0.087000 1.940000 -0.288900
			CHANNELS 3 Zrotation Yrotation Xrotation
			JOINT Spine1
			{
				OFFSET 0.000000 1.950000 0.060000
				CHANNELS 3 Zrotation Yrotation Xrotation
				JOINT Neck
				{
					OFFSET 0.000000 0.000000 0.000000
					CHANNELS 3 Zrotation Yrotation Xrotation
					JOINT Neck1
					{
						OFFSET 0.000000 1.600000 0.340000
						CHANNELS 3 Zrotation Yrotation Xrotation
						JOINT Head
						{
							OFFSET 0.000000 1.667000 -0.240000
							CHANNELS 3 Zrotation Yrotation Xrotation
							End Site
							{
								OFFSET 0.000000 0.000000 0.000000
							}
						}
					}
				}
				JOINT LeftShoulder
				{
					OFFSET 0.000000 0.000000 0.000000
					CHANNELS 3 Zrotation Yrotation Xrotation
					JOINT LeftArm
					{
						OFFSET 2.700000 1.550000 -0.730000
						CHANNELS 3 Zrotation Yrotation Xrotation
						JOINT LeftForeArm
						{
							OFFSET 5.450000 0.000000 0.000000
							CHANNELS 3 Zrotation Yrotation Xrotation
							JOINT LeftHand
							{
								OFFSET 3.450000 0.000000 0.000000
								CHANNELS 3 Zrotation Yrotation Xrotation
								JOINT LeftHandIndex1
								{
									OFFSET 0.750000 0.000000 0.000000
									CHANNELS 3 Zrotation Yrotation Xrotation
									End Site
									{
										OFFSET 0.000000 0.000000 0.000000
									}
								}
							}
						}
					}
				}
				JOINT RightShoulder
				{
					OFFSET 0.000000 0.000000 0.000000
					CHANNELS 3 Zrotation Yrotation Xrotation
					JOINT RightArm
					{
						OFFSET -2.700000 1.550000 -0.730000
						CHANNELS 3 Zrotation Yrotation Xrotation
						JOINT RightForeArm
						{
							OFFSET -5.450000 0.000000 0.000000
							CHANNELS 3 Zrotation Yrotation Xrotation
							JOINT RightHand
							{
								OFFSET -3.450000 0.000000 0.000000
								CHANNELS 3 Zrotation Yrotation Xrotation
								JOINT RightHandIndex1
								{
									OFFSET -0.750000 0.000000 0.000000
									CHANNELS 3 Zrotation Yrotation Xrotation
									End Site
									{
										OFFSET 0.000000 0.000000 0.000000
									}
								}
							}
						}
					}
				}
			}
		}
	}
}
MOTION
Frames: 4
Frame Time: 0.016667
1.283840 17.279940 -0.932430 -2.576957 16.146042 2.554222 -15.300781 12.131202 2.792855 -1.836310 0.399423 -3.126617 -6.528664 3.853945 3.004694 -0.826127 4.674393 3.355689 0.254360 -0.046630 -0.082980 18.328874 -10.434238 3.536181 -4.526096 4.157535 -28.249618 5.479735 -2.221087 -3.624481 -0.098087 -2.817777 3.242041 0.205850 1.097790 1.091670 -3.717540 0.517510 -7.455116 5.965009 4.391590 6.220318 1.845004 2.801353 7.866362 3.542625 5.627051 -10.820255 10.146523 -8.325163 22.647418 -10.287240 -3.937050 -5.687310 -16.345759 -17.119405 6.836719 -4.425670 -1.320089 1.215214 1.879666 -19.629208 -0.548551 -4.368564 2.954140 0.572340 0.848630 0.059130 0.564400 9.586496 16.519271 4.436837 15.623374 19.035993 -2.017193 8.654728 49.116598 4.081404 1.588746 -1.779142 -0.356670 0.215080 0.112200 0.172810 
1.280670 17.281350 -0.935860 -2.436798 16.724515 2.370403 -15.323156 12.169104 2.786447 -1.790719 0.430198 -3.195216 -6.574722 3.921661 3.414154 -0.839718 4.676138 3.331975 0.268800 -0.015780 -0.085610 18.301065 -10.433004 3.524810 -4.883496 4.072602 -28.351346 5.469101 -2.266398 -3.384748 -0.112491 -2.806093 3.236720 0.219530 1.078670 1.100570 -3.653668 0.455807 -7.441918 5.504103 4.380445 6.458279 2.120181 2.721007 7.865499 3.681987 5.886202 -10.830671 10.589741 -8.802040 22.681332 -10.321870 -4.305200 -6.615640 -16.241451 -17.101660 6.736072 -4.652798 -1.955701 1.236726 2.632685 -19.102487 -0.680958 -4.377911 2.930468 0.584640 0.837140 0.082840 0.560670 9.239529 16.373640 4.458998 15.426478 18.764227 -2.306611 8.171189 50.093860 3.946086 1.567015 -1.768916 -0.341670 0.220070 0.120920 0.173290 
1.278440 17.276810 -0.937850 -2.268088 17.170078 2.345889 -15.331213 12.160566 2.771251 -1.775422 0.441831 -3.253284 -6.648195 3.965294 3.737034 -0.851363 4.665342 3.311029 0.315330 0.042670 -0.050380 18.291905 -10.449445 3.518946 -5.416436 4.040013 -28.792160 5.558623 -2.309585 -2.922971 -0.130387 -2.794129 3.211884 0.252220 1.041390 1.116060 -3.634522 0.515162 -7.404186 5.121729 4.426526 6.381309 2.207274 2.653482 8.016606 3.918998 6.286716 -10.914981 11.393603 -9.381967 22.184741 -10.407460 -4.583350 -7.419740 -16.052920 -17.192068 6.769531 -4.777817 -2.352170 1.303236 3.500505 -18.328542 -0.822735 -4.376152 2.938270 0.588280 0.821410 0.112520 0.560660 8.590710 16.279031 4.439339 15.799755 18.979809 -2.606195 6.260885 51.406979 3.130608 1.541085 -1.788549 -0.317270 0.205430 0.101620 0.169510 
1.270890 17.276650 -0.935000 -1.897562 17.785384 2.252873 -15.360679 12.148441 2.786302 -1.831618 0.534455 -2.927741 -6.914338 3.985089 3.498527 -0.820765 4.656487 3.285266 0.386360 0.124010 -0.000810 18.266936 -10.444060 3.492878 -5.883721 3.909828 -28.942470 5.224960 -2.297117 -2.832051 -0.162736 -2.790695 3.183120 0.283180 0.974280 1.140110 -3.557283 0.525147 -7.381285 4.267361 4.592443 6.320414 2.745866 2.604873 8.094012 4.055856 6.748584 -11.156068 12.286201 -10.441933 21.910727 -10.575100 -5.190570 -7.988730 -16.131740 -17.583652 6.922860 -4.772691 -2.714283 1.358634 3.866833 -17.362850 -0.875306 -4.335887 2.987446 0.591000 0.786170 0.160600 0.574400 8.405314 16.539089 4.571923 15.406885 18.741528 -3.069412 4.214794 52.314210 2.220381 1.540932 -1.832364 -0.268240 0.157150 0.051170 0.174010 
